Coordinates
version=1
nRows=8
nColumns=63
inDegrees=yes

Units are S.I. units (second, meters, Newtons, ...)
If the header above contains a line with 'inDegrees', this indicates whether rotational values are in degrees (yes) or radians (no).

endheader
time	pelvis_tilt	pelvis_list	pelvis_rotation	pelvis_tx	pelvis_ty	pelvis_tz	hip_flexion_r	hip_adduction_r	hip_rotation_r	knee_angle_r	knee_angle_r_beta	ankle_angle_r	subtalar_angle_r	mtp_angle_r	hip_flexion_l	hip_adduction_l	hip_rotation_l	knee_angle_l	knee_angle_l_beta	ankle_angle_l	subtalar_angle_l	mtp_angle_l	L5_S1_Flex_Ext	L5_S1_Lat_Bending	L5_S1_axial_rotation	L4_L5_Flex_Ext	L4_L5_Lat_Bending	L4_L5_axial_rotation	L3_L4_Flex_Ext	L3_L4_Lat_Bending	L3_L4_axial_rotation	L2_L3_Flex_Ext	L2_L3_Lat_Bending	L2_L3_axial_rotation	L1_L2_Flex_Ext	L1_L2_Lat_Bending	L1_L2_axial_rotation	L1_T12_Flex_Ext	L1_T12_Lat_Bending	L1_T12_axial_rotation	Abs_r3	Abs_r2	Abs_r1	Abs_t1	Abs_t2	neck_flexion	neck_bending	neck_rotation	arm_flex_r	arm_add_r	arm_rot_r	elbow_flex_r	pro_sup_r	wrist_flex_r	wrist_dev_r	arm_flex_l	arm_add_l	arm_rot_l	elbow_flex_l	pro_sup_l	wrist_flex_l	wrist_dev_l
2.869565	-4.016952	-1.038291	105.435807	0.096409	1.015620	0.474701	-7.505603	-0.865192	3.148542	0.687159	0.011993	17.382348	-13.853617	0.000000	-4.611067	3.686982	8.887476	4.546671	0.079354	20.404935	-3.386036	0.000000	-0.049346	-0.475904	-1.675807	-0.091640	-0.632953	-1.780545	-0.081070	-1.157114	-1.780545	-0.056397	-1.157114	-1.466331	-0.045823	-0.970464	-1.361593	-0.028196	-0.737176	-1.256855	-0.352472	-5.383525	-9.320336	0.000000	0.000000	19.054917	8.072809	10.175009	9.071463	-15.047933	45.311762	52.306266	85.190098	-6.730242	-1.580863	-4.903635	-19.741623	23.453847	64.714147	89.371743	-6.788531	-1.014362
2.891304	-3.740655	-1.509687	105.984878	0.095472	1.014712	0.477426	-6.795073	-0.678484	2.637081	0.719350	0.012555	17.248798	-13.968812	0.000000	-3.669545	3.546410	9.070960	4.935810	0.086146	20.643649	-3.138590	0.000000	-0.012013	-0.448365	-1.756962	-0.022309	-0.596326	-1.866773	-0.019736	-1.090156	-1.866773	-0.013729	-1.090156	-1.537342	-0.011155	-0.914307	-1.427532	-0.006864	-0.694518	-1.317722	-0.085805	-5.071999	-9.771698	0.000000	0.000000	20.140167	7.929045	10.191622	10.106408	-14.546185	47.316651	52.489850	85.390803	-4.159297	-1.691660	-3.524440	-19.264954	26.574979	64.209783	89.265806	-4.555092	-1.790685
2.913043	-3.462432	-1.936621	106.416035	0.094618	1.013812	0.479808	-6.131139	-0.500116	2.258909	0.752512	0.013134	17.176539	-14.047482	0.000000	-2.780136	3.395461	8.909257	5.374947	0.093811	21.004461	-2.604116	0.000000	0.024793	-0.417266	-1.828605	0.046043	-0.554964	-1.942893	0.040732	-1.014542	-1.942893	0.028336	-1.014542	-1.600030	0.023023	-0.850890	-1.485742	0.014167	-0.646346	-1.371454	0.177094	-4.720201	-10.170155	0.000000	0.000000	21.232677	7.741600	10.437167	11.092558	-14.049670	49.530994	52.654812	85.297995	-1.602561	-1.616046	-2.170656	-18.778679	29.740452	63.618190	88.668482	-2.251826	-2.363874
2.934783	-3.194011	-2.305756	106.661211	0.093938	1.012968	0.481818	-5.522430	-0.348712	1.882077	0.794222	0.013862	17.240163	-13.798006	0.000000	-1.989706	3.246451	8.280406	5.807788	0.101365	21.444333	-1.702380	0.000000	0.059945	-0.383366	-1.873318	0.111324	-0.509876	-1.990400	0.098483	-0.932116	-1.990400	0.068511	-0.932116	-1.639153	0.055665	-0.781759	-1.522071	0.034253	-0.593834	-1.404988	0.428180	-4.336710	-10.418833	0.000000	0.000000	22.294522	7.508315	10.893137	11.973994	-13.597887	51.855506	52.786594	84.930476	0.854239	-1.364721	-0.769878	-18.273889	33.057009	62.896413	87.505105	0.046269	-2.773276
2.956522	-2.945938	-2.618322	106.778281	0.093412	1.012175	0.483483	-4.987470	-0.212274	1.722029	0.831224	0.014508	17.336721	-13.633592	0.000000	-1.273766	3.090562	7.296215	6.283705	0.109671	21.977896	-0.505312	0.000000	0.093098	-0.348923	-1.904595	0.172893	-0.464068	-2.023632	0.152951	-0.848373	-2.023632	0.106402	-0.848373	-1.666521	0.086451	-0.711525	-1.547484	0.053196	-0.540482	-1.428446	0.664992	-3.947092	-10.592787	0.000000	0.000000	23.295772	7.258851	11.541155	12.736544	-13.171377	54.211982	52.889383	84.209976	3.316333	-0.822341	0.639355	-17.775888	36.398533	62.150029	86.095776	2.361213	-2.740846
2.978261	-2.722870	-2.864528	106.734467	0.093094	1.011455	0.484819	-4.526623	-0.101586	1.649238	0.883737	0.015424	17.516101	-13.333034	0.000000	-0.671053	2.941500	6.119926	6.737878	0.117598	22.530319	0.747287	0.000000	0.122031	-0.314856	-1.914301	0.226624	-0.418759	-2.033945	0.200485	-0.765541	-2.033945	0.139469	-0.765541	-1.675014	0.113318	-0.642055	-1.555370	0.069729	-0.487712	-1.435726	0.871656	-3.561715	-10.646769	0.000000	0.000000	24.211545	7.028607	12.337527	13.341592	-12.796144	56.471922	52.972952	83.125765	5.844811	-0.049260	2.062792	-17.279073	39.753417	61.389293	84.240541	4.629455	-2.222714
3.000000	-2.524426	-3.054736	106.568860	0.092941	1.010812	0.485855	-4.134777	-0.010084	1.598101	0.949547	0.016573	17.787227	-12.859399	0.000000	-0.172671	2.798122	4.860268	7.155306	0.124884	23.085775	1.983074	0.000000	0.147853	-0.282227	-1.909900	0.274577	-0.375362	-2.029269	0.242907	-0.686207	-2.029269	0.168981	-0.686207	-1.671163	0.137296	-0.575518	-1.551794	0.084483	-0.437170	-1.432425	1.056097	-3.192610	-10.622293	0.000000	0.000000	25.005802	6.832947	13.213517	13.779683	-12.481978	58.555025	53.060243	81.734145	8.416293	0.894909	3.447338	-16.791179	42.994864	60.635855	81.937506	6.727905	-1.253533
3.021739	-2.355242	-3.180138	106.295473	0.092970	1.010287	0.486642	-3.818679	0.063492	1.602596	1.023418	0.017862	18.143520	-12.260811	0.000000	0.212892	2.656777	3.500689	7.526902	0.131369	23.663103	3.286475	0.000000	0.168232	-0.251970	-1.890585	0.312423	-0.335120	-2.008747	0.276388	-0.612639	-2.008747	0.192272	-0.612639	-1.654262	0.156220	-0.513817	-1.536101	0.096128	-0.390301	-1.417939	1.201664	-2.850331	-10.514869	0.000000	0.000000	25.646047	6.699319	14.161566	14.085019	-12.239658	60.446452	53.149496	80.201344	10.918523	1.992665	4.812448	-16.327595	46.124588	59.860846	79.398638	8.655063	-0.080072
